<svg width="1706" height="389" viewBox="0 0 1706 388.629497" version="1.1" xmlns="http://www.w3.org/2000/svg" xmlns:xlink="http://www.w3.org/1999/xlink">
  <g id="Page-1" stroke="none" stroke-width="1" fill="none" fill-rule="evenodd">
    <path d="M1174.41,387.800421 C1141.5,384.330421 1116.8,370.090421 1100.83,345.400421 C1088.44,326.230421 1077,290.730421 1077,271.410421 L1077,264.820421 L1125,264.820421 L1125,267.910421 C1125,272.740421 1128.79,290.120421 1132.07,300.370421 C1140,325.120421 1159.07,338.850421 1185.46,338.800421 C1203.36,338.770421 1215.94,334.070421 1226.56,323.450421 C1240.02,309.980421 1245.67,287.300421 1241.64,262.850421 C1239.38,249.100421 1234.93,240.580421 1226.22,233.320421 C1214.57,223.610421 1205.78,219.890421 1163.72,206.870421 C1139.67,199.430421 1117.98,184.480421 1106.34,167.320421 C1097.73,154.630421 1089.83,134.600421 1086.97,118.220421 C1084.97,106.760421 1086.16,85.3604205 1089.42,74.3204205 C1095.04,55.2304205 1103.46,41.1104205 1117.43,27.3204205 C1127.35,17.5304205 1133.12,13.7004205 1146.9,7.76042053 C1160.8,1.77042053 1173.48,-0.469579474 1190.5,0.0804205262 C1207.43,0.630420526 1217.56,2.97042053 1230.5,9.35042053 C1241.84,14.9304205 1250.06,21.5704205 1258.15,31.6904205 C1269.82,46.2904205 1275.71,57.8804205 1281.32,77.3204205 L1284.79,89.3204205 L1298.4,89.6004205 L1312,89.8804205 L1312,20.8204205 L1356,20.8204205 L1356,89.8204205 L1405,89.8204205 L1405,105.320421 C1405,113.840421 1405.35,120.820421 1405.78,120.820421 C1406.22,120.820421 1407.35,119.500421 1408.3,117.890421 C1409.25,116.280421 1413.51,111.430421 1417.76,107.100421 C1430.12,94.5404205 1448.02,86.4904205 1466.5,85.1804205 C1476.64,84.4704205 1491.01,87.2804205 1500.02,91.7504205 C1507.02,95.2204205 1519.1,104.520421 1521.63,108.370421 C1522.51,109.720421 1523.63,110.820421 1524.11,110.820421 C1524.6,110.820421 1525,106.770421 1525,101.820421 L1525,92.8204205 L1564,92.8204205 L1564,376.820421 L1525,376.820421 L1525,364.830421 L1520.47,368.290421 C1514.25,373.040421 1504.3,377.630421 1496.25,379.460421 C1487.58,381.440421 1461.59,382.330421 1452.5,380.970421 C1430.35,377.650421 1427.43,376.420421 1419.21,366.970421 C1403.39,348.780421 1395.18,333.000421 1387.12,305.320421 C1379.96,280.710421 1376.68,240.740421 1379.45,211.820421 C1382.31,181.910421 1386.57,161.840421 1393.82,144.070421 L1396.78,136.820421 L1356,136.820421 L1356,377.820421 L1312,377.820421 L1312,136.820421 L1282,136.820421 L1282,107.860421 L1241.5,107.320421 L1240.4,101.820421 C1236.99,84.6804205 1231.39,72.9304205 1222.45,64.1604205 C1212.32,54.2204205 1201.36,49.8704205 1186.5,49.8704205 C1171.36,49.8704205 1160.65,54.2104205 1150.02,64.6804205 C1139.13,75.4004205 1134.68,86.7504205 1134.68,103.820421 C1134.68,126.970421 1142.9,140.390421 1163.08,150.180421 C1168.26,152.690421 1183.07,158.310421 1196,162.660421 C1234.64,175.670421 1247.12,181.940421 1260.86,195.210421 C1277.14,210.940421 1286.29,229.180421 1290.61,254.500421 C1292.76,267.120421 1292.04,291.230421 1289.13,303.910421 C1281.88,335.490421 1268.46,356.980421 1247.29,370.870421 C1234.13,379.510421 1215.75,385.810421 1198.21,387.710421 C1187.04,388.920421 1185.06,388.920421 1174.41,387.800421 Z M0,375.860421 C0,372.450421 37.31,293.880421 80.76,205.820421 C144.73,76.1604205 168.32,28.1904205 173.32,17.5704205 L178.86,5.82042053 L219,5.82042053 L219,230.670421 L221.59,233.740421 C224.58,237.290421 228.6,237.810421 231.85,235.070421 C233.84,233.380421 313.26,75.1804205 335.51,28.5704205 L346.37,5.82042053 L387,5.82042053 L387,377.820421 L343,377.820421 L342.87,285.070421 C342.8,234.060421 342.85,180.950421 342.98,167.060421 C343.19,145.110421 343.01,141.480421 341.59,139.310421 C339.75,136.520421 335.93,135.990421 334.04,138.280421 C332.65,139.950421 324.23,156.970421 309.52,187.820421 C303.88,199.650421 290.01,228.740421 278.7,252.490421 C258.11,295.670421 237.42,339.880421 226.36,364.320421 L220.47,377.320421 L200.23,377.590421 L180,377.860421 L180,256.000421 C180,139.200421 179.92,134.060421 178.17,132.470421 C175.54,130.090421 172.62,130.430421 168.91,133.550421 C165.09,136.770421 154.18,158.750421 67.59,337.820421 C57.62,358.440421 49.11,375.880421 48.67,376.570421 C48.08,377.510421 42.01,377.820421 23.94,377.820421 C0.85,377.820421 0,377.750421 0,375.860421 Z M497.66,382.840421 C467.87,377.410421 444.98,359.700421 430.5,330.850421 C422.78,315.470421 416.67,295.210421 413.31,273.820421 C410.67,257.030421 410.67,203.420421 413.32,190.320421 C425.27,131.090421 452.79,95.9904205 495.26,85.8104205 C521.16,79.6004205 551.62,88.8004205 571.96,108.970421 C580.9,117.840421 585.58,124.550421 592.08,137.800421 C600.01,153.970421 606.31,175.130421 609.21,195.320421 C610.84,206.720421 610.79,253.700421 609.12,266.820421 C604.34,304.540421 591.76,336.100421 573.88,355.240421 C557.81,372.450421 536.36,382.330421 513,383.290421 C507.22,383.530421 500.32,383.330421 497.66,382.840421 Z M712.41,381.840421 C704.44,380.710421 691.89,376.460421 685,372.560421 C657.19,356.820421 640.95,329.970421 630.95,283.230421 C627.92,269.030421 627.74,267.000421 627.27,240.570421 C626.86,217.920421 627.08,210.650421 628.45,201.070421 C636.96,141.520421 658.28,105.680421 694.5,90.0204205 C707.56,84.3804205 712.41,83.3704205 726.5,83.3803474 C741.75,83.3904205 750.1,85.3304205 763.29,91.9604205 C787.33,104.050421 803.59,125.180421 814.33,158.320421 C821.65,180.930421 822.31,185.800421 822.78,221.320421 C823.36,265.060421 821.55,282.470421 813.88,307.320421 C802.1,345.510421 779.62,370.260421 748.5,379.320421 C738.46,382.250421 722.93,383.330421 712.41,381.840421 Z M844.25,235.680421 L844.5,93.5404205 L866.25,93.0604205 L888,92.5704205 L888,114.160421 L893.63,107.940421 C907.19,92.9504205 924.67,85.4404205 946,85.4404205 C979.83,85.4404205 1004.43,104.660421 1015.41,139.650421 C1016.28,142.430421 1017.01,144.740421 1017.64,147.090421 C1021,159.770421 1021,173.350421 1021,267.080421 L1021,377.820421 L977,377.820421 L976.98,275.570421 L976.98,270.510421 C976.97,177.450421 976.97,166.950421 973.11,158.130421 C972.55,156.860421 971.91,155.610421 971.17,154.160421 C967.89,147.660421 961.42,141.100421 955.15,137.900421 C948.57,134.540421 938.19,133.180421 930.76,134.690421 C911.27,138.670421 898.5,151.980421 890.78,176.360421 C888.57,183.310421 888.57,183.510421 888.24,280.570421 L887.92,377.820421 L843.99,377.820421 L844.25,235.680421 Z M518.28,335.350421 C536.14,331.560421 549.49,317.280421 557.52,293.350421 C568.55,260.500421 568.73,204.080421 557.9,173.120421 C548.6,146.530421 532.83,132.790421 511.66,132.830333 C484.54,132.880421 464.76,156.300421 458.46,195.820421 C456.23,209.770421 455.43,243.410421 456.96,258.560421 C460.89,297.420421 473.17,322.920421 492.25,331.850421 C502.69,336.730421 508.23,337.480421 518.28,335.350421 Z M737.07,333.210421 C744.94,330.880421 750.12,327.520421 756.69,320.480421 C766.29,310.210421 771.88,297.410421 775.92,276.510421 C780.29,253.830421 780.98,217.640421 777.47,194.280421 C772.95,164.170421 761.88,144.810421 744.18,136.070421 C736.93,132.490421 736.15,132.320421 726.5,132.320421 C716.84,132.320421 716.06,132.490421 708.83,136.060421 C694.31,143.230421 683.7,157.820421 677.61,179.000421 C666.75,216.680421 670.22,280.500421 684.6,307.880421 C693.59,324.980421 707.91,334.750421 724.07,334.800525 C728.23,334.810421 734.08,334.100421 737.07,333.210421 Z M1491.56,332.870421 C1504.43,326.550421 1513.15,315.510421 1518.87,298.300421 C1523.78,283.530421 1524.19,277.680421 1523.75,228.320421 L1523.34,183.320421 L1520.23,172.160421 C1514.81,152.710421 1508.84,144.180421 1496.62,138.440421 C1490.32,135.470421 1477.76,133.360421 1470.74,134.080421 C1443.28,136.920421 1427.6,160.600421 1422.95,206.240421 C1421.31,222.330421 1422.23,265.990421 1424.46,278.320421 C1429.96,308.630421 1438.07,323.780421 1453.05,331.770421 C1461.84,336.450421 1463.35,336.780421 1474.56,336.520421 C1483.73,336.300421 1485.23,335.980421 1491.56,332.870421 Z M1603.5,92.3204205 L1643,91.7804205 L1643,113.890421 L1648.97,107.510421 C1662.58,92.9604205 1681.79,83.8204205 1698.73,83.8204205 L1706,83.8204205 L1706,135.820421 L1698.05,135.820421 C1682.91,135.820421 1672.18,139.720421 1663.48,148.390421 C1657.29,154.570421 1653.99,160.060421 1649.55,171.550421 C1648.42,174.480421 1647.49,176.860421 1646.72,179.300421 C1643,190.990421 1643,203.870421 1643,283.650421 L1643,377.820421 L1602.99,377.820421 L1603.5,92.3204205 Z" id="Shape" fill="#FCE503" fill-rule="nonzero"></path>
  </g>
</svg>
